<?xml version="1.0" encoding="utf-8"?>
<!-- Generator: Adobe Illustrator 22.1.0, SVG Export Plug-In . SVG Version: 6.00 Build 0)  -->
<svg version="1.1" id="Layer_1" xmlns="http://www.w3.org/2000/svg" xmlns:xlink="http://www.w3.org/1999/xlink" x="0px" y="0px"
	 viewBox="0 0 12.1 16.6" style="enable-background:new 0 0 12.1 16.6;" xml:space="preserve">
<style type="text/css">
	.st0{fill:#FFFFFF;}
</style>
<g>
	<path class="st0" d="M3.7,1.9l1.7,3.4L4.1,5.9l2.8,5.6l1.4-0.7l1.8,3.4c0,0-1,0.6-2.1,0.6c-0.6,0-1.2-0.2-1.7-0.7
		C4.9,12.8,1.8,8.6,1.6,5C1.6,5,1.5,2.5,3.7,1.9 M4.5,0.1L3.4,0.4C0.7,1.1,0.1,3.7,0.1,5c0.2,4.3,3.7,8.8,5,10.2
		c0.7,0.8,1.7,1.2,2.8,1.2c1.5,0,2.8-0.8,2.9-0.9l1.1-0.7l-0.6-1.2l-1.8-3.4L8.9,8.8L7.6,9.5l0,0L6.1,6.6l0,0l1.3-0.7L6.8,4.6
		L5.1,1.2L4.5,0.1L4.5,0.1z"/>
</g>
</svg>
