<svg id="Layer_1" data-name="Layer 1" xmlns="http://www.w3.org/2000/svg" viewBox="0 0 33.23 25.02"><defs><style>.cls-1{fill:#ff8600;}</style></defs><title>compare2</title><path class="cls-1" d="M12.07,7.13H5.63a1.5,1.5,0,0,1,0-3h6.44a1.5,1.5,0,0,1,0,3Z" transform="translate(0 0)"/><path class="cls-1" d="M27.74,7.13H21.31a1.5,1.5,0,0,1,0-3h6.43a1.5,1.5,0,0,1,0,3Z" transform="translate(0 0)"/><path class="cls-1" d="M5.63,25A5.63,5.63,0,0,1,.76,16.58L5.63,8.14l4.88,8.44A5.63,5.63,0,0,1,5.63,25Zm0-10.88L3.36,18.08A2.63,2.63,0,0,0,5.63,22a2.63,2.63,0,0,0,2.28-3.94Z" transform="translate(0 0)"/><path class="cls-1" d="M27.59,25a5.63,5.63,0,0,1-4.88-8.44l4.88-8.44,4.87,8.44A5.63,5.63,0,0,1,27.59,25Zm0-10.88-2.28,3.94A2.63,2.63,0,0,0,27.59,22a2.63,2.63,0,0,0,2.27-3.94Z" transform="translate(0 0)"/><path class="cls-1" d="M16.72,19.81a1.5,1.5,0,0,1-1.5-1.5V11.14a1.5,1.5,0,0,1,3,0v7.17A1.5,1.5,0,0,1,16.72,19.81Z" transform="translate(0 0)"/><path class="cls-1" d="M16.69,12.23a6.12,6.12,0,1,1,6.12-6.11A6.12,6.12,0,0,1,16.69,12.23Zm0-9.23a3.12,3.12,0,1,0,3.12,3.12A3.12,3.12,0,0,0,16.69,3Z" transform="translate(0 0)"/></svg>