<svg 
 xmlns="http://www.w3.org/2000/svg"
 xmlns:xlink="http://www.w3.org/1999/xlink"
 width="9px" height="16px">
<path fill-rule="evenodd"  fill="rgb(255, 255, 255)"
 d="M8.661,0.003 L6.502,-0.000 C4.077,-0.000 2.510,1.545 2.510,3.937 L2.510,5.753 L0.340,5.753 C0.152,5.753 0.000,5.899 0.000,6.079 L0.000,8.710 C0.000,8.890 0.152,9.036 0.340,9.036 L2.510,9.036 L2.510,15.674 C2.510,15.854 2.662,16.000 2.849,16.000 L5.681,16.000 C5.868,16.000 6.020,15.854 6.020,15.674 L6.020,9.036 L8.558,9.036 C8.746,9.036 8.898,8.890 8.898,8.710 L8.899,6.079 C8.899,5.993 8.863,5.910 8.799,5.849 C8.735,5.787 8.649,5.753 8.559,5.753 L6.021,5.753 L6.021,4.214 C6.021,3.474 6.204,3.098 7.206,3.098 L8.661,3.098 C8.848,3.098 9.000,2.952 9.000,2.772 L9.000,0.329 C9.000,0.149 8.848,0.003 8.661,0.003 Z"/>
</svg>