<?xml version="1.0" encoding="utf-8"?>
<!-- Generator: Adobe Illustrator 22.1.0, SVG Export Plug-In . SVG Version: 6.00 Build 0)  -->
<svg version="1.1" id="Layer_1" xmlns="http://www.w3.org/2000/svg" xmlns:xlink="http://www.w3.org/1999/xlink" x="0px" y="0px"
	 viewBox="0 0 30.4 29.1" style="enable-background:new 0 0 30.4 29.1;" xml:space="preserve">
<style type="text/css">
	.st0{fill:none;stroke:#B4B9BF;stroke-width:3;stroke-linecap:round;stroke-linejoin:round;stroke-miterlimit:10;}
	.st1{fill:none;stroke:#FF8500;stroke-width:3;stroke-miterlimit:10;}
</style>
<path class="st0" d="M21.3,8.6l5.9,1.8c1.2,0.4,1.7,1.9,0.9,2.9l-3.8,4.8c-0.3,0.3-0.4,0.8-0.4,1.2l0.1,6.2c0,1.3-1.3,2.2-2.5,1.8
	l-5.8-2.1c-0.4-0.1-0.8-0.2-1.2,0l-5.8,2c-1.2,0.4-2.5-0.5-2.5-1.8l0.3-6.2c0-0.4-0.1-0.8-0.4-1.2L2.3,13c-0.8-1-0.3-2.5,1-2.9
	l5.9-1.7c0.4-0.1,0.8-0.4,1-0.7l3.6-5c0.8-1.1,2.3-1,3.1,0l3.4,5.1C20.5,8.2,20.9,8.5,21.3,8.6z"/>
<circle class="st1" cx="15.3" cy="15.5" r="3.5"/>
</svg>
