<svg id="Layer_1" data-name="Layer 1" xmlns="http://www.w3.org/2000/svg" viewBox="0 0 29.57 28.55"><defs><style>.cls-1{fill:#f90;}</style></defs><title>favourite2</title><path class="cls-1" d="M21.67,28.55a3.36,3.36,0,0,1-1.17-.21l-5.79-2.15a.39.39,0,0,0-.24,0l-5.85,2a3.36,3.36,0,0,1-4.44-3.32l.26-6.17a.39.39,0,0,0-.07-.23l-3.7-5A3.35,3.35,0,0,1,2.45,8.27l6-1.66a.48.48,0,0,0,.2-.14l3.56-5A3.36,3.36,0,0,1,14.9,0h0A3.36,3.36,0,0,1,17.7,1.5l3.42,5.14a.33.33,0,0,0,.19.14h0l5.9,1.83a3.35,3.35,0,0,1,1.64,5.29L25,18.75a.35.35,0,0,0-.08.22L25,25.15a3.33,3.33,0,0,1-1.42,2.79A3.37,3.37,0,0,1,21.67,28.55Zm-7.09-5.38a3.32,3.32,0,0,1,1.17.21l5.79,2.15a.35.35,0,0,0,.48-.34L21.94,19a3.43,3.43,0,0,1,.72-2.13L26.5,12a.38.38,0,0,0,.06-.33.35.35,0,0,0-.24-.23l-5.9-1.83a3.42,3.42,0,0,1-1.8-1.35L15.2,3.16A.35.35,0,0,0,14.91,3a.34.34,0,0,0-.3.15l-3.56,5A3.34,3.34,0,0,1,9.21,9.49l-6,1.67a.36.36,0,0,0-.19.56l3.7,4.94a3.39,3.39,0,0,1,.67,2.15L7.18,25a.39.39,0,0,0,.14.3.36.36,0,0,0,.33.05l5.85-2A3.35,3.35,0,0,1,14.58,23.17Z" transform="translate(0 0)"/><path class="cls-1" d="M14.81,20.1a5,5,0,0,1-3-1,5,5,0,0,1-.93-7,5,5,0,0,1,3.3-1.91,4.94,4.94,0,0,1,3.69,1,5,5,0,0,1,.94,7,4.94,4.94,0,0,1-3.31,1.91A5,5,0,0,1,14.81,20.1Zm0-7-.27,0a2,2,0,0,0-1.32.77,2,2,0,0,0,.37,2.79,2,2,0,0,0,1.48.39,2,2,0,0,0,1.31-.77A2,2,0,0,0,16,13.52,2,2,0,0,0,14.83,13.11Z" transform="translate(0 0)"/></svg>