<?xml version="1.0" encoding="utf-8"?>
<!-- Generator: Adobe Illustrator 22.1.0, SVG Export Plug-In . SVG Version: 6.00 Build 0)  -->
<svg version="1.1" id="Layer_1" xmlns="http://www.w3.org/2000/svg" xmlns:xlink="http://www.w3.org/1999/xlink" x="0px" y="0px"
	 viewBox="0 0 16.8 15.9" style="enable-background:new 0 0 16.8 15.9;" xml:space="preserve">
<style type="text/css">
	.st0{fill:#FFFFFF;}
</style>
<g>
	<path class="st0" d="M8.4,2.1c1.4,0,2.5,1.1,2.5,2.5l0,2c0,0,0,0.1,0,0.1c0,0.1,0,0.1,0,0.2L10.8,8l1.1,0.4
		c1.8,0.7,3.1,2.5,3.1,4.4v1.3h-13v-1.3c0-2,1.2-3.7,3.1-4.4L6.1,8L6,6.8c0-0.1,0-0.1,0-0.2c0,0,0-0.1,0-0.1v-2
		C5.9,3.2,7,2.1,8.4,2.1 M8.4,0.6c-2.2,0-4,1.8-4,4v2c0,0.1,0,0.3,0,0.4c-2.4,0.9-4,3.2-4,5.8v2.8h16v-2.8c0-2.7-1.7-4.9-4-5.8
		c0-0.1,0-0.3,0-0.4v-2C12.4,2.4,10.6,0.6,8.4,0.6L8.4,0.6z"/>
</g>
</svg>
