<svg id="Layer_1" data-name="Layer 1" xmlns="http://www.w3.org/2000/svg" viewBox="0 0 47.5 24.62"><title>new</title><polygon points="46 23.12 7.5 23.12 1.5 12.31 7.5 1.5 46 1.5 46 23.12" style="fill:none;stroke:#ff9100;stroke-linecap:round;stroke-linejoin:round;stroke-width:3px"/><circle cx="11.89" cy="12.37" r="3.3" style="fill:none;stroke:#ff9100;stroke-linecap:round;stroke-miterlimit:10;stroke-width:3px"/><path d="M23.33,15.17l-2.46-3.38v3.38h-2V8.5h2.08l2.32,3.16V8.5h2v6.67Z" style="fill:none;stroke:#ff9100;stroke-miterlimit:10"/><path d="M26.35,15.17V8.5h5.06v1.76h-3v.66h3v1.76h-3v.73h3v1.76Z" style="fill:none;stroke:#ff9100;stroke-miterlimit:10"/><path d="M37.4,15.17l-.86-3.78-.86,3.78H33.56L31.65,8.5h2.26l.86,4.08,1-4.08H37.3l1,4.08.85-4.08h2.27l-1.91,6.67Z" style="fill:none;stroke:#ff9100;stroke-miterlimit:10"/></svg>