<svg id="Layer_4" data-name="Layer 4" xmlns="http://www.w3.org/2000/svg" viewBox="0 0 21.95 28.51"><title>oil</title><polyline points="5.61 24.73 5.61 27.51 20.95 27.51 20.95 10.65 13.5 5.21 5.61 5.26 5.61 11.24" fill="none" stroke="#fff" stroke-miterlimit="10" stroke-width="2"/><polygon points="12.75 4.94 5.61 4.97 5.61 1.04 12.75 1 12.75 4.94" fill="none" stroke="#fff" stroke-miterlimit="10" stroke-width="2"/><line x1="8.14" y1="0.97" x2="8.14" y2="4.47" fill="none" stroke="#fff" stroke-miterlimit="10"/><line x1="10.11" y1="1" x2="10.11" y2="4.5" fill="none" stroke="#fff" stroke-miterlimit="10"/><path d="M11.52,4.5" fill="none" stroke="#fff" stroke-miterlimit="10"/><path d="M11.11,1" fill="none" stroke="#fff" stroke-miterlimit="10"/><path d="M5.8,10.17,1.74,16.62A4.79,4.79,0,0,0,5.8,24h0a4.79,4.79,0,0,0,4.05-7.34Z" fill="none" stroke="#fff" stroke-miterlimit="10" stroke-width="2"/><line x1="8.52" y1="14.5" x2="20.95" y2="14.5" fill="none" stroke="#fff" stroke-miterlimit="10"/><line x1="20.95" y1="20.08" x2="10.53" y2="20.08" fill="none" stroke="#fff" stroke-miterlimit="10"/></svg>