<?xml version="1.0" encoding="utf-8"?>
<!-- Generator: Adobe Illustrator 22.1.0, SVG Export Plug-In . SVG Version: 6.00 Build 0)  -->
<svg version="1.1" id="Layer_1" xmlns="http://www.w3.org/2000/svg" xmlns:xlink="http://www.w3.org/1999/xlink" x="0px" y="0px"
	 viewBox="0 0 53.3 26.3" style="enable-background:new 0 0 53.3 26.3;" xml:space="preserve">
<style type="text/css">
	.st0{fill:none;stroke:#B4B9BF;stroke-width:3;stroke-linecap:round;stroke-linejoin:round;stroke-miterlimit:10;}
</style>
<line class="st0" x1="35.5" y1="20" x2="17.6" y2="20"/>
<path class="st0" d="M8.5,20c0,0-0.8,0.1-1.8,0c-2-0.1-4.9-0.7-4.9-3.1c0-3.2,3.9-6.4,6.5-7c2.3-0.5,7.3-0.9,12.4-4.8
	c2.2-1.7,4.8-2.7,7.5-2.9c1-0.1,2-0.1,2.9-0.2C34.1,2,37,2.8,39.4,4.4l3.2,2.1c1.4,0.9,3.1,1.5,4.8,1.7l1.7,0.2
	c1.3,0.1,2.3,1.2,2.3,2.6v6c0,0-0.1,3.1-6.2,3.1"/>
<circle class="st0" cx="13.2" cy="20.1" r="4.3"/>
<circle class="st0" cx="40.2" cy="20.1" r="4.3"/>
<line class="st0" x1="13.2" y1="8.9" x2="30.5" y2="8.9"/>
</svg>
