<svg id="Layer_1" data-name="Layer 1" xmlns="http://www.w3.org/2000/svg" viewBox="0 0 52.69 25.35"><title>passenger-car</title><line x1="35.22" y1="19.5" x2="17.4" y2="19.5" style="fill:none;stroke:#ff8500;stroke-linecap:round;stroke-linejoin:round;stroke-width:3px"/><path d="M8.26,19.5a13,13,0,0,1-1.84,0c-2-.1-4.92-.67-4.92-3.09,0-3.23,3.92-6.37,6.53-7,2.33-.55,7.29-.85,12.43-4.85a14.45,14.45,0,0,1,7.48-2.92c1-.1,2-.15,2.94-.17a14.77,14.77,0,0,1,8.31,2.42L42.38,6a10.72,10.72,0,0,0,4.83,1.68l1.65.15a2.57,2.57,0,0,1,2.33,2.56v6S51.11,19.5,45,19.5" style="fill:none;stroke:#ff8500;stroke-linecap:round;stroke-linejoin:round;stroke-width:3px"/><circle cx="12.97" cy="19.54" r="4.31" style="fill:none;stroke:#ff8500;stroke-linecap:round;stroke-linejoin:round;stroke-width:3px"/><circle cx="40" cy="19.54" r="4.31" style="fill:none;stroke:#ff8500;stroke-linecap:round;stroke-linejoin:round;stroke-width:3px"/><line x1="12.97" y1="8.37" x2="30.22" y2="8.37" style="fill:none;stroke:#ff8500;stroke-linecap:round;stroke-linejoin:round;stroke-width:3px"/></svg>