<svg id="Layer_1" data-name="Layer 1" xmlns="http://www.w3.org/2000/svg" viewBox="0 0 40.5 35.33"><defs><style>.cls-1{fill:#b4b9bf;}</style></defs><title>pay</title><path class="cls-1" d="M32.33,35.33H8.17A8.17,8.17,0,0,1,0,27.17v-14A8.17,8.17,0,0,1,8.17,5H32.33a8.18,8.18,0,0,1,8.17,8.17v14A8.18,8.18,0,0,1,32.33,35.33ZM8.17,8A5.18,5.18,0,0,0,3,13.17v14a5.17,5.17,0,0,0,5.17,5.16H32.33a5.17,5.17,0,0,0,5.17-5.16v-14A5.18,5.18,0,0,0,32.33,8Z" transform="translate(0 0)"/><path class="cls-1" d="M1.5,21.83A1.5,1.5,0,0,1,0,20.33V8.17A8.17,8.17,0,0,1,8.17,0H33.33a1.5,1.5,0,0,1,0,3H8.17A5.18,5.18,0,0,0,3,8.17V20.33A1.5,1.5,0,0,1,1.5,21.83Z" transform="translate(0 0)"/><circle class="cls-1" cx="30.9" cy="19.53" r="1.53"/><path class="cls-1" d="M39,24.81H24.06a1.5,1.5,0,0,1-1.5-1.5V15.68a1.5,1.5,0,0,1,1.5-1.5H39a1.5,1.5,0,0,1,1.5,1.5v7.63A1.5,1.5,0,0,1,39,24.81Zm-13.44-3H37.5V17.18H25.56Z" transform="translate(0 0)"/></svg>