<svg 
 xmlns="http://www.w3.org/2000/svg"
 xmlns:xlink="http://www.w3.org/1999/xlink"
 width="16px" height="13px">
<path fill-rule="evenodd"  fill="rgb(255, 255, 255)"
 d="M15.559,0.240 C14.924,0.616 14.221,0.889 13.473,1.037 C12.874,0.398 12.022,-0.000 11.078,-0.000 C9.264,-0.000 7.795,1.470 7.795,3.282 C7.795,3.539 7.824,3.790 7.880,4.030 C5.152,3.893 2.733,2.586 1.115,0.600 C0.832,1.084 0.671,1.648 0.671,2.250 C0.671,3.389 1.251,4.394 2.130,4.982 C1.592,4.964 1.087,4.816 0.644,4.570 L0.644,4.611 C0.644,6.201 1.776,7.527 3.276,7.830 C3.001,7.904 2.712,7.945 2.412,7.945 C2.200,7.945 1.995,7.924 1.794,7.886 C2.212,9.189 3.423,10.139 4.859,10.166 C3.736,11.046 2.320,11.570 0.783,11.570 C0.518,11.570 0.257,11.555 -0.000,11.525 C1.453,12.456 3.177,13.000 5.032,13.000 C11.069,13.000 14.370,7.998 14.370,3.660 L14.360,3.235 C15.003,2.774 15.561,2.196 16.000,1.538 C15.411,1.799 14.779,1.976 14.116,2.055 C14.793,1.649 15.313,1.005 15.559,0.240 Z"/>
</svg>