<svg id="Layer_1" data-name="Layer 1" xmlns="http://www.w3.org/2000/svg" viewBox="0 0 52.1 36.11"><defs><style></style></defs><title>uk</title><path class="cls-1" d="M34.27,36.11a2,2,0,0,1-1.74-.68,1.93,1.93,0,0,1-.38-.19,1.48,1.48,0,0,1-.62-1.53,4,4,0,0,1,.29-.93,2.72,2.72,0,0,1-1.09-.72h0a2.22,2.22,0,0,1-1.42-.92,1.69,1.69,0,0,1-.19-1.28,1.57,1.57,0,0,1,.6-1l.08-.1a2.37,2.37,0,0,1-1.48-.43,2.24,2.24,0,0,1-1.62-1.21,1.62,1.62,0,0,1-.1-.18l-.22.13a1.71,1.71,0,0,1-.29.4,3,3,0,0,0-.48.63,8,8,0,0,1-.54.71,2.56,2.56,0,0,0-.26.36,2.3,2.3,0,0,1-1,1l0,.07v.35a1.66,1.66,0,0,1-1.13,1.66,1.62,1.62,0,0,1-1.33-.17l-.32.25a1.86,1.86,0,0,1-2.83-.19h0a1.78,1.78,0,0,1-1.2-2.4,2,2,0,0,1,.76-1.31l.18-.22h0a4.42,4.42,0,0,1,.41-.47l.12-.12c-.08-1-.08-1.12-.08-1.17V25.3a1.5,1.5,0,0,1,2.12-1.37l.46.23a1.27,1.27,0,0,1,0-.2,5.2,5.2,0,0,1-.28-.45,1.91,1.91,0,0,1-1.05-.88,2.06,2.06,0,0,1,0-2l-.43-.17-.55-.21a7.73,7.73,0,0,1-1-.54,1.91,1.91,0,0,0-.31-.18L17,19.47l-.16,0-.28.07A3.88,3.88,0,0,1,15,19.6a3.67,3.67,0,0,0-.64,0h-.05a2.15,2.15,0,0,1-.35.21,3.07,3.07,0,0,1-.45.35,3.66,3.66,0,0,1-1.19.8,1.94,1.94,0,0,1-1.59,0l0,0a2,2,0,0,1-2,.32l-.33-.09a2.5,2.5,0,0,1-.8-.33A4.56,4.56,0,0,1,7,20.68a2.37,2.37,0,0,1-1,0,2.54,2.54,0,0,1-1.29-.59L4.58,20a2.67,2.67,0,0,1-.9,0H3.59a2.32,2.32,0,0,1-.74,0,2,2,0,0,1-1.64-1l-.08-.11-.21-.22A2.48,2.48,0,0,1,0,17a3.94,3.94,0,0,1,.78-2,4.39,4.39,0,0,1,.27-.39.71.71,0,0,0,.16-.27,2.4,2.4,0,0,1,.92-1.3,2.37,2.37,0,0,1,.06-.73A3.16,3.16,0,0,1,2.84,11c.06-.08.13-.16.21-.28A3.22,3.22,0,0,1,4.33,9.54a4.66,4.66,0,0,0,.51-.31c.23-.17.41-.29.58-.4a4.27,4.27,0,0,0,.41-.29s0-.09,0-.13A3.58,3.58,0,0,1,5.89,7.3s0-.07,0-.11A2.55,2.55,0,0,1,6,5.49,3.31,3.31,0,0,1,6.36,2.7a2.12,2.12,0,0,1,1.69-.93,7,7,0,0,1,.69-.23c.2-.06.42-.12.68-.22a1.91,1.91,0,0,1,1.64-.05c.33.06.83.18,1.69.42l.55.14a9.34,9.34,0,0,1,1.35.41,4.16,4.16,0,0,0,1.1.32,4.52,4.52,0,0,1,1.15.3l.16.06A6.88,6.88,0,0,1,19,3.5l.06,0a1.92,1.92,0,0,1,.52-.07,3,3,0,0,1,1.15.27l.2.07.16,0a11,11,0,0,1,1.68.4l.11,0,.58-.07a2.86,2.86,0,0,1,.11-.5,2.14,2.14,0,0,1,.62-.89l0,0a2,2,0,0,1,1-.93,2.1,2.1,0,0,1,1.67-.42,3.8,3.8,0,0,0,.73,0h.05a3.62,3.62,0,0,1,.48-.31A2.32,2.32,0,0,1,29.49.73h.13a1.3,1.3,0,0,0,.4-.1h0A1.81,1.81,0,0,1,31.41,0a2,2,0,0,1,1.46.72H33a1.52,1.52,0,0,1,1.08.46l1.34,1.4a1.49,1.49,0,0,1-.05,2.12.43.43,0,0,1,0,.11,2.36,2.36,0,0,1,.94.21,4.35,4.35,0,0,0,.43.14A1.89,1.89,0,0,1,38.34,7a4.63,4.63,0,0,1,.35.87h.09a3.66,3.66,0,0,1,.75.09,3.77,3.77,0,0,0,.72.09l0,0a1.92,1.92,0,0,1,1.06-.43l.25-.07c.49-.17,1.77-.6,2.42.51l.65.54a1,1,0,0,1,.15.14L45,9l.47.05c.31,0,.68.07,1.06.07H47a1.53,1.53,0,0,1,1.08.46c.25.15.57.35.79.47l.12.07.17,0,1.05.31c.62.19,1.67.51,1.84,1.58a1.57,1.57,0,0,1-.48,1.4,2.21,2.21,0,0,1-.29.51,1.48,1.48,0,0,1,0,1.15.58.58,0,0,0-.06.16c0,.05,0,.12,0,.18a3.59,3.59,0,0,1,.5,2.09c0,.14,0,.34,0,.53s0,.41,0,.53A1.76,1.76,0,0,1,51.21,20a2,2,0,0,1-1.7.39h-.12a7,7,0,0,0-.8.17,1.75,1.75,0,0,1-.7.75l-.46.51a2.17,2.17,0,0,1,.09.84,1.66,1.66,0,0,1-1.16,1.69,1.58,1.58,0,0,1-1.09-.14,4,4,0,0,0-.42.25,2.11,2.11,0,0,1-.91.42l-.19.08a5.67,5.67,0,0,1-.93.33c-.18.1-.43.28-.66.43l-.3.2a4.83,4.83,0,0,1-1,.5,5.58,5.58,0,0,0-.66.3l-.36.21-.29.19,0,.06a2.08,2.08,0,0,1-1,1.12,2.3,2.3,0,0,1,.47.54h.26a2.79,2.79,0,0,0,.54,0l.46-.07a3,3,0,0,1,1.07-.2,2,2,0,0,1,1.61.85,1.5,1.5,0,0,1,.16,1.35l-.24.67a2,2,0,0,1-1.39,1.56,1.08,1.08,0,0,1-.19,0c-.17,0-.49.07-.68.07a2.42,2.42,0,0,1-1-.28l-.06.1A1.61,1.61,0,0,1,38,33.7l-.12,0a3.41,3.41,0,0,0-.61.22,3.2,3.2,0,0,1-.34.15l-.13.06A2.37,2.37,0,0,1,34.27,36.11Zm-.46-.85-.1.06Zm1-3.63v.12a4.82,4.82,0,0,1,.64-.29l.27-.11.21-.1a5.4,5.4,0,0,1,.78-.31,1.55,1.55,0,0,1-.12-.22l-.06-.14-.06-.13,0,0A2.55,2.55,0,0,1,36,30a3.82,3.82,0,0,1-.94-.49l-.51-.14-.17,0a2,2,0,0,1-.61.41l.17.07a1.71,1.71,0,0,1,.91,1.48q0,.23,0,.36Zm-2.44-.36Zm0,0h0Zm-10.94-3.4a.94.94,0,0,1,0,.12,1,1,0,0,1,0,.24,2.32,2.32,0,0,1,.28-.31Zm2.69-.3Zm0,0Zm10.64-1.21Zm-3-.55h0a4.84,4.84,0,0,1,1.29.23,1.61,1.61,0,0,1,.47-.51,1.59,1.59,0,0,1,1.75-.05s0,0,.13,0a3.79,3.79,0,0,1,.93.3s0,0,.08,0l.31-.16a2.23,2.23,0,0,1,1-1,2.5,2.5,0,0,0,.35-.21,5.86,5.86,0,0,1,.56-.33,8.77,8.77,0,0,1,1-.46c.17-.07.42-.17.49-.21l.28-.19a11.35,11.35,0,0,1,1.1-.7,1.89,1.89,0,0,1,.69-.2s.1-.05.3-.14a4.56,4.56,0,0,1,.6-.22h0a6.18,6.18,0,0,1,1-.57,2.78,2.78,0,0,1,.7-1.24c.29-.34.51-.6.7-.79a1.38,1.38,0,0,1,.07-.32,1.92,1.92,0,0,1,1.4-1.17l.25-.08c.52-.14,1-.28,1.45-.36h0c-.08-.24-.21-.6-.26-.72a4.09,4.09,0,0,1-.27-1.48,1.48,1.48,0,0,1,0-.21,2.44,2.44,0,0,1-.1-.24,1.76,1.76,0,0,1,0-1.76,3.19,3.19,0,0,1-.73-.32l-.89-.54c-.27,0-.53,0-.76,0a1.41,1.41,0,0,1-.3.17,1.81,1.81,0,0,1-2.12-.68l-.66-.72-.45-.36-.23.06a2,2,0,0,1-1.7.53,6.25,6.25,0,0,1-1.39-.15l-.16,0H37.68c-1.42,0-1.74-1.51-1.86-2.07l0-.11a1.47,1.47,0,0,0-.21-.47,2.48,2.48,0,0,1-.17-.38l-.2-.08H35a1.82,1.82,0,0,0-.37,0A2,2,0,0,1,33,7.46,1.84,1.84,0,0,1,32.41,6V5.75A2,2,0,0,1,32,5a1.8,1.8,0,0,1,.14-1.23h-.05a1.54,1.54,0,0,1-.93-.32L31,3.46a4.39,4.39,0,0,1-1.06.25,1,1,0,0,0-.24,0l-.22,0a2.24,2.24,0,0,1-1.73.61,6.27,6.27,0,0,1-1,0,2.21,2.21,0,0,1-.31.39v0a3.78,3.78,0,0,1,.13,1.09,2.46,2.46,0,0,1-.91,1.83,1.51,1.51,0,0,1-2.32-.52A2.56,2.56,0,0,1,21.67,7c-.11,0-.52-.13-1.17-.25l-.22,0a4.49,4.49,0,0,1-.66-.21l-.07,0A2.35,2.35,0,0,1,18,6.35l-.17-.06a10.35,10.35,0,0,0-1-.38,3.37,3.37,0,0,1-1-.23,2,2,0,0,0-.44-.14A7.19,7.19,0,0,1,13.47,5a7.66,7.66,0,0,0-.9-.26L12,4.58c-1.05-.28-1.41-.36-1.52-.38h-.15l-.71.22c-.17,0-.32.09-.47.15l-.21.08c0,.09,0,.17,0,.23a3.19,3.19,0,0,1,.1.69,2.5,2.5,0,0,1-.21.92h0a2.94,2.94,0,0,1,0,1.33,1.56,1.56,0,0,1,.29.81,2.1,2.1,0,0,1-.77,1.64,6.84,6.84,0,0,1-1.31,1.07l-.45.3a8.71,8.71,0,0,1-.78.5,1.27,1.27,0,0,0-.26.15,3.66,3.66,0,0,1-.37.52l0,.06a2.15,2.15,0,0,1-1.21,2.61,3.68,3.68,0,0,1-.49.82l-.1.14-.16.27.25.27A3.77,3.77,0,0,1,4,17a2,2,0,0,1,2,.26c.25.17.42.29.54.39a2.16,2.16,0,0,1,1.35.12,2,2,0,0,0,.51.09,2.38,2.38,0,0,1,1,.28,2.06,2.06,0,0,1,2.06-.31l.09,0a2.1,2.1,0,0,1,.44-.34,2.78,2.78,0,0,1,.63-.45,2.47,2.47,0,0,1,1.77-.55c.43,0,.73,0,1,.05a.94.94,0,0,0,.48,0,3.3,3.3,0,0,1,1.86-.05l.17,0a3.8,3.8,0,0,1,1.26.56,3.91,3.91,0,0,0,.57.31l.46.18a3.7,3.7,0,0,1,1.71,1,2.6,2.6,0,0,1,.74,2.47,2.55,2.55,0,0,1,.6.81,2.61,2.61,0,0,0,.24.38,2.25,2.25,0,0,1,.47,1.44c0,.12,0,.12.17.41a6.79,6.79,0,0,1,.3.61l.37-.21a4.07,4.07,0,0,0,.45-.27,2.17,2.17,0,0,1,1.26-.45h.16a3.51,3.51,0,0,1,0-.59,1,1,0,0,0,0-.17l0-.28a1.47,1.47,0,0,1,.46-1.2,1.45,1.45,0,0,1,1.22-.41A1.85,1.85,0,0,1,30.11,23v.78a1.41,1.41,0,0,1,0,.28,1.51,1.51,0,0,1,1,.36A2,2,0,0,1,31.82,25.8Zm-18.4-5.63h0ZM3.15,17.05,3,18.54l.21-1.47,0,0H3.15Zm45-2.47v0ZM41.4,7.63h0Zm-3.21-.86h0ZM8.75,6.24h0Zm8.13-.33h0ZM23,4.35Zm4-.23h0ZM16.92,2.91Zm7.19,0Z" transform="translate(0 0)"/></svg>