<svg id="Layer_1" data-name="Layer 1" xmlns="http://www.w3.org/2000/svg" viewBox="0 0 28.25 39.03"><defs><style>.cls-1{fill:#b4b9bf;}</style></defs><title>warranty</title><path class="cls-1" d="M14.13,39a1.47,1.47,0,0,1-.65-.15L6.67,35.64A11.73,11.73,0,0,1,0,25.09V1.5A1.5,1.5,0,0,1,1.5,0H26.75a1.5,1.5,0,0,1,1.5,1.5V25.09a11.73,11.73,0,0,1-6.67,10.55h0l-6.81,3.24A1.46,1.46,0,0,1,14.13,39ZM3,3V25.09a8.71,8.71,0,0,0,5,7.84l6.18,2.94,6.17-2.94a8.71,8.71,0,0,0,4.95-7.84V3ZM20.94,34.29h0Z"/><path class="cls-1" d="M16,25.49a1.53,1.53,0,0,1-.81-.23l-1-.67-1,.67a1.51,1.51,0,0,1-1.19.18,1.48,1.48,0,0,1-1-.76l-.56-1.09-1.23.06a1.51,1.51,0,0,1-1.57-1.57l.06-1.22-1.09-.57A1.49,1.49,0,0,1,6,18.15l.66-1-.66-1a1.5,1.5,0,0,1-.19-1.2,1.54,1.54,0,0,1,.76-1l1.09-.56-.06-1.22A1.51,1.51,0,0,1,8,11a1.53,1.53,0,0,1,1.13-.43l1.23.05L11,9.55a1.51,1.51,0,0,1,1-.76A1.47,1.47,0,0,1,13.09,9l1,.66,1-.66a1.5,1.5,0,0,1,2.14.57l.56,1.09,1.23-.05a1.53,1.53,0,0,1,1.13.43,1.51,1.51,0,0,1,.44,1.14l-.06,1.22,1.09.56a1.54,1.54,0,0,1,.76,1,1.5,1.5,0,0,1-.19,1.2l-.66,1,.66,1a1.49,1.49,0,0,1-.57,2.14l-1.09.57.06,1.22a1.51,1.51,0,0,1-1.57,1.57l-1.23-.06-.56,1.09a1.48,1.48,0,0,1-.95.76A1.2,1.2,0,0,1,16,25.49Zm-1.84-4.18a1.44,1.44,0,0,1,.8.24l.46.29.25-.48a1.47,1.47,0,0,1,1.4-.81l.54,0,0-.54a1.5,1.5,0,0,1,.81-1.41l.48-.25-.29-.45a1.49,1.49,0,0,1,0-1.62l.29-.46-.48-.25a1.49,1.49,0,0,1-.81-1.4l0-.54-.54,0a1.49,1.49,0,0,1-1.4-.81l-.25-.49-.46.3a1.51,1.51,0,0,1-1.61,0l-.46-.3-.25.49a1.49,1.49,0,0,1-1.4.81l-.54,0,0,.54a1.49,1.49,0,0,1-.81,1.4l-.48.25.29.46a1.49,1.49,0,0,1,0,1.62l-.29.45.48.25A1.5,1.5,0,0,1,10.69,20l0,.54.54,0a1.47,1.47,0,0,1,1.4.81l.25.48.46-.29A1.45,1.45,0,0,1,14.13,21.31Z"/></svg>